# File created by Blade
# Date/Time:  Tue Apr 07 21:36:59 2015
# Frame Rate: 120.000 fps
#------------------------------------------------------
:FULLY-SPECIFIED
:DEGREES
499
root 8.235686 30.497599 9.047461 194.184597 -93.259862 -137.671450
Spine 11.575970 -2.889731 -1.005524
Head -60.687159 -1.675261 9.718729
LeftShoulder -10.193128 42.052263 9.797588
LeftArm 47.471465 20.358870 -67.816041
LeftForeArm 7.472153 -0.000000 -4.274273
LeftHand 10.451079 -0.000000 -5.030280
LeftHandThumb1 -26.253704 0.000000 33.147579
RightShoulder 1.714625 -9.367682 -17.679104
RightArm 2.792261 -17.255447 91.409145
RightForeArm 7.971818 -0.000000 6.083734
RightHand 17.281090 -0.000000 -9.352255
RightHandThumb1 -24.326973 -0.000000 -32.862282
LeftUpLeg -85.149955 -5.217845 7.681473
LeftLeg 41.643203 -0.000000 -0.000000
LeftFoot -17.993456 9.450873 -13.441309
LeftToeBase -9.363695 -0.000000 0.000000
RightUpLeg -86.818985 1.225218 -4.109448
RightLeg 41.793930 -0.000000 -0.000000
RightFoot -18.959980 -14.129022 10.932720
RightToeBase -4.211941 -0.000000 0.000000
500
root 8.232270 30.471371 9.060708 185.924984 -93.254194 -127.585518
Spine 7.985513 -2.866804 -1.641515
Head -58.783526 -1.823458 9.971264
LeftShoulder -9.093255 40.987944 11.007861
LeftArm 50.873556 21.666860 -65.255538
LeftForeArm 5.654987 -0.000000 -3.935201
LeftHand 11.578593 -0.000000 -4.300170
LeftHandThumb1 -26.253704 0.000000 33.147579
RightShoulder 2.230435 -8.449473 -17.596852
RightArm 5.217385 -17.423917 91.065882
RightForeArm 9.320915 -0.000000 7.040056
RightHand 18.639007 -0.000000 -13.702167
RightHandThumb1 -24.326973 -0.000000 -32.862282
LeftUpLeg -87.227580 -5.315936 7.735832
LeftLeg 42.155958 -0.000000 -0.000000
LeftFoot -17.986858 9.866843 -13.617643
LeftToeBase -9.248884 -0.000000 0.000000
RightUpLeg -89.105305 1.123652 -5.086744
RightLeg 42.662009 -0.000000 -0.000000
RightFoot -18.813246 -14.376395 11.298284
RightToeBase -4.367545 -0.000000 0.000000
501
root 8.092973 30.450860 9.056825 186.314453 -93.348799 -128.959886
Spine 7.862030 -2.820320 -1.688562
Head -58.167432 -1.782442 10.207448
LeftShoulder -7.934315 39.183500 11.440510
LeftArm 54.250728 22.029622 -62.342536
LeftForeArm 5.155212 -0.000000 -3.277151
LeftHand 11.669388 -0.000000 -3.715987
LeftHandThumb1 -26.253704 0.000000 33.147579
RightShoulder 2.619828 -6.861310 -16.872131
RightArm 8.139041 -17.476297 89.850285
RightForeArm 11.302243 -0.000000 7.957160
RightHand 19.532080 -0.000000 -17.136167
RightHandThumb1 -24.326973 -0.000000 -32.862282
LeftUpLeg -86.339138 -5.720066 8.035443
LeftLeg 42.802345 -0.000000 -0.000000
LeftFoot -18.366050 10.157630 -13.663832
LeftToeBase -9.199663 -0.000000 0.000000
RightUpLeg -88.168981 1.351864 -5.313521
RightLeg 43.323765 -0.000000 -0.000000
RightFoot -19.077406 -14.758096 11.357366
RightToeBase -4.577034 -0.000000 0.000000
502
root 7.903517 30.415062 9.034239 196.706275 -93.668740 -141.387742
Spine 8.879403 -2.920009 -0.932053
Head -57.837664 -1.792903 10.361229
LeftShoulder -6.984201 37.293317 11.530402
LeftArm 57.922466 22.099830 -58.919585
LeftForeArm 4.018710 -0.000000 -2.409921
LeftHand 11.652039 -0.000000 -3.815309
LeftHandThumb1 -26.253704 0.000000 33.147579
RightShoulder 3.095817 -5.052759 -15.997994
RightArm 11.203983 -17.191508 88.144646
RightForeArm 13.520149 -0.000000 9.261822
RightHand 19.912344 -0.000000 -19.472829
RightHandThumb1 -24.326973 -0.000000 -32.862282
LeftUpLeg -84.525819 -6.254192 8.786693
LeftLeg 43.758377 -0.000000 -0.000000
LeftFoot -18.892847 10.202818 -13.664173
LeftToeBase -9.188647 -0.000000 0.000000
RightUpLeg -86.115083 1.643006 -4.657336
RightLeg 44.120668 -0.000000 -0.000000
RightFoot -19.390968 -15.243108 11.110209
RightToeBase -4.906867 -0.000000 0.000000
503
root 7.727492 30.353445 8.996960 208.662016 -94.171412 -155.141138
Spine 9.359002 -2.980101 0.096063
Head -56.983770 -1.825100 10.431150
LeftShoulder -5.774465 35.163595 11.966135
LeftArm 60.748148 21.350597 -56.888058
LeftForeArm 4.391294 0.000000 -1.333965
LeftHand 11.186696 -0.000000 -4.582178
LeftHandThumb1 -26.253704 0.000000 33.147579
RightShoulder 3.474135 -3.160667 -15.217181
RightArm 14.156225 -16.079805 86.589739
RightForeArm 14.971437 0.000000 10.792831
RightHand 20.841781 -0.000000 -19.773250
RightHandThumb1 -24.326973 -0.000000 -32.862282
LeftUpLeg -83.185013 -6.647852 9.761525
LeftLeg 45.125549 -0.000000 -0.000000
LeftFoot -19.393891 10.024675 -13.805443
LeftToeBase -9.461499 -0.000000 0.000000
RightUpLeg -84.394825 2.039015 -3.860878
RightLeg 45.049037 -0.000000 -0.000000
RightFoot -19.750988 -15.769192 11.019390
RightToeBase -5.272944 -0.000000 0.000000
504
root 7.572631 30.255819 8.995414 208.307101 -94.292721 -156.277073
Spine 9.223322 -3.019199 0.042511
Head -55.447044 -2.020535 10.653045
LeftShoulder -4.771579 33.515421 12.826047
LeftArm 63.590098 20.180815 -55.227339
LeftForeArm 4.470826 0.000000 0.472296
LeftHand 12.020640 0.000000 -3.364058
LeftHandThumb1 -26.253704 0.000000 33.147579
RightShoulder 3.883264 -1.164280 -14.474257
RightArm 16.906102 -14.367008 85.554043
RightForeArm 14.426629 -0.000000 12.554220
RightHand 21.306820 -0.000000 -20.456815
RightHandThumb1 -24.326973 -0.000000 -32.862282
LeftUpLeg -82.194660 -7.079853 9.820696
LeftLeg 46.715761 -0.000000 -0.000000
LeftFoot -19.876798 10.001926 -13.999434
LeftToeBase -10.079881 -0.000000 0.000000
RightUpLeg -83.347371 2.288144 -3.899784
RightLeg 46.538134 -0.000000 -0.000000
RightFoot -20.096095 -15.990667 11.066981
RightToeBase -5.875548 -0.000000 0.000000
505
root 7.415003 30.126212 8.992682 208.774940 -94.275745 -158.378279
Spine 9.069669 -2.955984 -0.032477
Head -53.600076 -2.250084 10.836406
LeftShoulder -3.786642 31.798021 13.820168
LeftArm 65.616732 18.416870 -54.652767
LeftForeArm 4.465071 -0.000000 3.353855
LeftHand 11.684448 -0.000000 -3.286690
LeftHandThumb1 -26.253704 0.000000 33.147579
RightShoulder 4.250519 1.026343 -13.812351
RightArm 19.485334 -12.703962 84.683202
RightForeArm 12.213093 0.000000 14.880077
RightHand 21.918176 -0.000000 -21.822812
RightHandThumb1 -24.326973 -0.000000 -32.862282
LeftUpLeg -81.234560 -7.186769 9.478895
LeftLeg 48.829021 -0.000000 -0.000000
LeftFoot -20.273041 9.733530 -14.009203
LeftToeBase -10.813399 -0.000000 0.000000
RightUpLeg -82.303167 2.675117 -3.855961
RightLeg 48.260019 -0.000000 -0.000000
RightFoot -20.410710 -16.199537 11.023380
RightToeBase -6.675291 -0.000000 0.000000
506
root 7.251146 29.967285 8.995167 209.743034 -94.275557 -161.100608
Spine 8.882692 -2.936399 -0.014943
Head -51.445948 -2.611322 10.933624
LeftShoulder -2.910322 30.142511 14.957053
LeftArm 67.156621 16.273835 -55.169401
LeftForeArm 4.663826 -0.000000 6.921052
LeftHand 13.340210 -0.000000 -1.111929
LeftHandThumb1 -26.253704 0.000000 33.147579
RightShoulder 4.701823 3.695042 -13.239590
RightArm 21.491115 -10.847559 84.112548
RightForeArm 9.123045 0.000000 17.725410
RightHand 22.168509 -0.000000 -22.899622
RightHandThumb1 -24.326973 -0.000000 -32.862282
LeftUpLeg -80.164787 -7.323395 9.221388
LeftLeg 51.040257 -0.000000 -0.000000
LeftFoot -20.853987 9.615128 -13.879048
LeftToeBase -11.287960 -0.000000 0.000000
RightUpLeg -81.261165 2.966359 -3.583545
RightLeg 50.264241 -0.000000 -0.000000
RightFoot -20.765733 -16.322763 10.738815
RightToeBase -7.269900 -0.000000 0.000000
507
root 7.084343 29.779947 9.003741 211.108366 -94.249488 -164.366798
Spine 8.735828 -2.927713 0.069487
Head -49.050367 -3.032533 10.894413
LeftShoulder -2.171321 28.562314 16.146957
LeftArm 68.438968 13.763814 -56.467049
LeftForeArm 4.833306 -0.000000 11.300406
LeftHand 15.174508 -0.000000 1.592809
LeftHandThumb1 -26.253704 0.000000 33.147579
RightShoulder 5.210421 6.459593 -12.869591
RightArm 23.548582 -9.234339 83.512559
RightForeArm 6.271561 0.000000 20.825567
RightHand 22.229495 0.000000 -24.078063
RightHandThumb1 -24.326973 -0.000000 -32.862282
LeftUpLeg -78.999680 -7.459249 9.011913
LeftLeg 53.409648 -0.000000 -0.000000
LeftFoot -21.502467 9.371044 -14.023310
LeftToeBase -12.069186 -0.000000 0.000000
RightUpLeg -80.151125 3.251413 -3.257793
RightLeg 52.477443 -0.000000 -0.000000
RightFoot -21.119543 -16.172960 10.774938
RightToeBase -8.475763 -0.000000 0.000000
